<svg width="1429" height="355" viewBox="0 0 1429 355" fill="none" xmlns="http://www.w3.org/2000/svg">
<path d="M119.302 333.787C112.529 338.849 95.3547 345.297 80.8463 330.59C66.338 315.883 74.9626 300.768 81.0885 295.049C86.6702 289.434 94.0746 274.724 79.0393 260.796C64.0039 246.868 48.4282 254.826 42.5197 260.547C36.0138 266.209 19.6017 274.086 6.00011 260.298" stroke="#9747FF" stroke-width="11" stroke-linecap="round"/>
<path d="M1403.12 61.1277C1410.01 64.7637 1422.16 76.5057 1415.65 94.3867C1409.15 112.268 1393.17 111.063 1385.99 108.225C1379.11 105.799 1363.95 105.449 1358.3 123.461C1352.65 141.472 1365.42 151.288 1372.52 153.944C1379.8 157.12 1392.84 167.664 1386.74 184.427" stroke="#BB1E1E" stroke-width="13" stroke-linecap="round"/>
<path d="M1214.92 340.694C1208.08 333.076 1199.04 312.274 1217.59 290.014C1236.14 267.753 1257.01 274.37 1265.12 280.461" stroke="#F45343" stroke-width="13" stroke-linecap="round"/>
<path d="M189 286L167 319" stroke="#FFA43D" stroke-width="18" stroke-linecap="round"/>
<path d="M120 43L99.0001 20" stroke="#F45343" stroke-width="17" stroke-linecap="round"/>
<path d="M1330 290L1342 327" stroke="#FDD35D" stroke-width="19" stroke-linecap="round"/>
<path d="M1289.3 198L1313.3 174" stroke="#A9F6A8" stroke-width="18" stroke-linecap="round"/>
<path d="M1275.78 9L1264 43" stroke="#2A3740" stroke-width="18" stroke-linecap="round"/>
</svg>
