<svg width="167" height="270" viewBox="0 0 167 270" fill="none" xmlns="http://www.w3.org/2000/svg">
<path d="M137.379 11.3967C145.568 15.4726 160.369 27.9621 154.056 45.3128C147.743 62.6634 129.223 60.3984 120.752 57.0971C112.657 54.225 95.1382 52.8653 89.8222 70.4032C84.5061 87.941 99.8997 98.5559 108.261 101.671C116.873 105.316 132.618 116.673 126.7 132.939" stroke="#BB1E1E" stroke-width="8" stroke-linecap="round"/>
<path d="M25.7206 263.655C18.0726 256.322 6.58053 236.571 21.7965 216.229C37.0124 195.888 58.2001 202.678 66.8919 208.615" stroke="#F45343" stroke-width="11" stroke-linecap="round"/>
<path d="M103 216L109 248" stroke="#FDD35D" stroke-width="15" stroke-linecap="round"/>
<path d="M87 169.685L106 151" stroke="#A9F6A8" stroke-width="13" stroke-linecap="round"/>
<path d="M48.7773 6L40 41" stroke="#2A3740" stroke-width="12" stroke-linecap="round"/>
</svg>
