<svg width="1740" height="416" viewBox="0 0 1740 416" fill="none" xmlns="http://www.w3.org/2000/svg">
<path d="M175.974 385.824C166.052 393.24 140.894 402.686 119.641 381.142C98.3879 359.597 111.022 337.456 119.996 329.078C128.172 320.854 139.019 299.305 116.994 278.902C94.9687 258.498 72.1521 270.157 63.4969 278.537C53.9665 286.832 29.9247 298.371 10.0001 278.173" stroke="#9747FF" stroke-width="20" stroke-linecap="round"/>
<path d="M1706.96 47.0913C1715.74 51.7287 1731.24 66.7049 1722.94 89.5108C1714.64 112.317 1694.26 110.78 1685.1 107.16C1676.33 104.066 1656.99 103.62 1649.79 126.592C1642.58 149.565 1658.88 162.084 1667.92 165.472C1677.21 169.523 1693.84 182.97 1686.06 204.351" stroke="#BB1E1E" stroke-width="20" stroke-linecap="round"/>
<path d="M1479.06 373C1469.96 362.867 1457.93 335.2 1482.61 305.591C1507.28 275.982 1535.04 284.783 1545.83 292.885" stroke="#F45343" stroke-width="20" stroke-linecap="round"/>
<path d="M272 289L250 332" stroke="#FFA43D" stroke-width="30" stroke-linecap="round"/>
<path d="M145.548 51.2466L105 25" stroke="#F45343" stroke-width="30" stroke-linecap="round"/>
<path d="M1629 296L1638.12 343.433" stroke="#FDD35D" stroke-width="30" stroke-linecap="round"/>
<path d="M1575 210.685L1612.3 180" stroke="#A9F6A8" stroke-width="30" stroke-linecap="round"/>
<path d="M1548.78 15L1537 61.8432" stroke="#2A3740" stroke-width="30" stroke-linecap="round"/>
</svg>
