<svg width="76" height="188" viewBox="0 0 76 188" fill="none" xmlns="http://www.w3.org/2000/svg">
<path d="M64.7017 3.1405C67.7643 4.6648 73.2993 9.33559 70.9384 15.8243C68.5776 22.3131 61.6515 21.466 58.4835 20.2314C55.4562 19.1573 48.9046 18.6488 46.9165 25.2076C44.9285 31.7663 50.6853 35.7361 53.8123 36.9011C57.033 38.2643 62.9213 42.5114 60.708 48.5946" stroke="#BB1E1E" stroke-width="6" stroke-linecap="round"/>
<path d="M44.6829 184.284C39.8844 179.8 32.3991 168.009 40.8455 156.717C49.2918 145.426 62.1591 150.022 67.5369 153.732" stroke="#F45343" stroke-width="6" stroke-linecap="round"/>
<path d="M58 113L68 126" stroke="#FDD35D" stroke-width="8" stroke-linecap="round"/>
<path d="M4 174.686L17.459 163" stroke="#A9F6A8" stroke-width="8" stroke-linecap="round"/>
<path d="M31.7773 13L24 28" stroke="#2A3740" stroke-width="7" stroke-linecap="round"/>
</svg>
