<?xml version="1.0" encoding="UTF-8"?>
<svg id="_Слой_2" data-name="Слой 2" xmlns="http://www.w3.org/2000/svg" xmlns:xlink="http://www.w3.org/1999/xlink" viewBox="0 0 1444.25 342.47">
  <defs>
    <style>
      .cls-1 {
        stroke: url(#_Безымянный_градиент_893-6);
      }

      .cls-1, .cls-2, .cls-3, .cls-4, .cls-5, .cls-6, .cls-7, .cls-8 {
        fill: none;
        stroke-width: 31.71px;
      }

      .cls-1, .cls-2, .cls-3, .cls-4, .cls-5, .cls-6, .cls-7, .cls-8, .cls-9 {
        stroke-linecap: round;
      }

      .cls-2 {
        stroke: url(#_Безымянный_градиент_893-7);
      }

      .cls-3 {
        stroke: url(#_Безымянный_градиент_893-9);
      }

      .cls-4 {
        stroke: url(#_Безымянный_градиент_893-3);
      }

      .cls-5 {
        stroke: url(#_Безымянный_градиент_893-4);
      }

      .cls-6 {
        stroke: url(#_Безымянный_градиент_893-5);
      }

      .cls-7 {
        stroke: url(#_Безымянный_градиент_893-2);
      }

      .cls-8 {
        stroke: url(#_Безымянный_градиент_893-10);
      }

      .cls-10 {
        fill: url(#_Безымянный_градиент_893-8);
      }

      .cls-9 {
        fill: url(#_Безымянный_градиент_17);
        stroke: url(#_Безымянный_градиент_893);
        stroke-width: 31.71px;
      }
    </style>
    <linearGradient id="_Безымянный_градиент_17" data-name="Безымянный градиент 17" x1="15.86" y1="240.5" x2="34.02" y2="240.5" gradientUnits="userSpaceOnUse">
      <stop offset="0" stop-color="#f24b4b"/>
      <stop offset=".25" stop-color="#f04d4d"/>
      <stop offset=".41" stop-color="#ec5456"/>
      <stop offset=".54" stop-color="#e55f64"/>
      <stop offset=".66" stop-color="#db7078"/>
      <stop offset=".76" stop-color="#cf8693"/>
      <stop offset=".86" stop-color="#bfa1b4"/>
      <stop offset=".95" stop-color="#adc0d9"/>
      <stop offset="1" stop-color="#a2d4f2"/>
    </linearGradient>
    <linearGradient id="_Безымянный_градиент_893" data-name="Безымянный градиент 893" x1="0" y1="240.5" x2="49.87" y2="240.5" gradientUnits="userSpaceOnUse">
      <stop offset="0" stop-color="#fff"/>
      <stop offset="1" stop-color="#fff"/>
    </linearGradient>
    <linearGradient id="_Безымянный_градиент_893-2" data-name="Безымянный градиент 893" x1="0" y1="246" x2="272.65" y2="246" xlink:href="#_Безымянный_градиент_893"/>
    <linearGradient id="_Безымянный_градиент_893-3" data-name="Безымянный градиент 893" x1="211.19" y1="241.08" x2="437.71" y2="241.08" xlink:href="#_Безымянный_градиент_893"/>
    <linearGradient id="_Безымянный_градиент_893-4" data-name="Безымянный градиент 893" x1="381.97" y1="242.33" x2="630.33" y2="242.33" xlink:href="#_Безымянный_градиент_893"/>
    <linearGradient id="_Безымянный_градиент_893-5" data-name="Безымянный градиент 893" x1="575.51" y1="239.21" x2="625.39" y2="239.21" xlink:href="#_Безымянный_градиент_893"/>
    <linearGradient id="_Безымянный_градиент_893-6" data-name="Безымянный градиент 893" x1="575.51" y1="244.5" x2="834.14" y2="244.5" xlink:href="#_Безымянный_градиент_893"/>
    <linearGradient id="_Безымянный_градиент_893-7" data-name="Безымянный градиент 893" x1="802.54" y1="242.71" x2="963.38" y2="242.71" xlink:href="#_Безымянный_градиент_893"/>
    <linearGradient id="_Безымянный_градиент_893-8" data-name="Безымянный градиент 893" x1="942.19" y1="243.55" x2="1069.25" y2="243.55" xlink:href="#_Безымянный_градиент_893"/>
    <linearGradient id="_Безымянный_градиент_893-9" data-name="Безымянный градиент 893" x1="1023.39" y1="239.83" x2="1252.34" y2="239.83" xlink:href="#_Безымянный_градиент_893"/>
    <linearGradient id="_Безымянный_градиент_893-10" data-name="Безымянный градиент 893" x1="1215.16" y1="169.45" x2="1444.25" y2="169.45" xlink:href="#_Безымянный_градиент_893"/>
  </defs>
  <g id="_Слой_1-2" data-name="Слой 1">
    <path class="cls-9" d="M34.02,158.47c-8.01,54.91-10.01,108.91-18.16,164.07"/>
    <path class="cls-7" d="M15.86,323.77c5.14-34.16,19.38-102.91,43.17-131.05,26.14-30.93,77.07-38.5,83.25,12.75,4.4,36.5-20.26,91.04,3.96,109.51s85.01-5.58,110.56-22.73"/>
    <path class="cls-4" d="M252.19,291.02c25.19-11.86,60.15-37.91,71.59-77.89,14.75-51.56-42.47-73.98-75.57-36.22-22.02,25.13-35.89,84.19,5.3,115.13l3.28,.19c11.15,14.63,27.15,23.63,45.15,28.63,35,9,90.17-.64,119.9-29.84"/>
    <path class="cls-5" d="M423.18,292.05c-35.35-26.56-30.49-86.38-5.3-115.13,33.09-37.77,90.31-15.34,75.57,36.22-11.43,39.97-46.4,66.03-71.59,77.89,25.26,45.27,135.96,69.55,192.62-67.81"/>
    <path class="cls-6" d="M609.53,157.18c-8.01,54.91-10.01,108.91-18.16,164.07"/>
    <path class="cls-1" d="M591.37,322.48c.68-5.55,2.68-11.55,2.68-18.55,3-19,8-36,13-55,8-27,18-54,43-72,13-8,27-13,42-9,2,1,4,2,7,3,7,4,12,10,15,17,10,28,0,57-3,85-1,14-2,30,10,40,7,6,15,8,23,9,26,2,51-5,74.23-15.06"/>
    <path class="cls-2" d="M821.42,224.62c-9.63,47.36,2.3,102.27,57.52,98.18,55.23-4.09,68.61-59.36,68.41-86.48,1.74-26.01-8.74-75.42-61.22-73.88s-64.71,62.18-64.71,62.18Z"/>
    <path class="cls-10" d="M950.57,158.72c-4.43,23.45-8.86,46.91-13.29,70.36-2.36,12.51-4.73,25.18-5.05,37.94-.18,6.93,.47,13.82,1.66,20.65,1.01,5.77,2.96,11.05,5.27,16.42,1.73,4.02,3.9,7.84,6.53,11.33,2,2.65,4,5.3,6.32,7.67s4.9,4.36,7.53,6.36c4.3,3.27,9.22,5.61,14.33,7.33,4.17,1.4,8.64,1.89,13,2.31,10.86,1.05,21.92-1.26,31.92-5.42,16.19-6.74,31.04-16,45.77-25.46,2.42-1.56,4.84-3.12,7.26-4.7,3.26-2.12,5.84-5.15,6.89-8.96,.99-3.59,.54-8.37-1.51-11.56s-5.14-6.02-8.96-6.89c-3.83-.87-8.17-.7-11.56,1.51-13.26,8.64-26.6,17.39-40.72,24.57-2.75,1.4-5.54,2.72-8.38,3.93l3.58-1.51c-5.35,2.25-10.91,4.06-16.67,4.85l3.99-.54c-4.64,.62-9.32,.53-13.95-.09l3.99,.54c-3.09-.42-6.07-1.18-8.96-2.37l3.58,1.51c-3.03-1.28-5.84-2.96-8.45-4.95l3.04,2.35c-3.01-2.35-5.68-5.07-8.04-8.08l2.35,3.04c-2.9-3.76-5.27-7.87-7.12-12.24l1.51,3.58c-2.05-4.92-3.33-10.06-4.06-15.33l.54,3.99c-1.25-9.55-.69-19.18,.59-28.7l-.54,3.99c1.59-11.64,4.02-23.17,6.2-34.71,2.2-11.65,4.4-23.29,6.6-34.94,1.25-6.6,2.49-13.19,3.74-19.79,.63-1.99,.71-3.99,.27-5.98-.09-2-.68-3.86-1.78-5.58-1.82-3.11-5.39-6.08-8.96-6.89-3.84-.87-8.15-.69-11.56,1.51-3.13,2.02-6.18,5.17-6.89,8.96h0Z"/>
    <path class="cls-3" d="M1063.28,290.02c25.19-11.86,60.15-37.91,71.59-77.89,14.75-51.56-42.48-73.98-75.57-36.22-25.19,28.75-30.05,88.57,5.3,115.13l-.35-.49c23.35,31.22,102.45,58.67,172.23-14.51"/>
    <path class="cls-8" d="M1243.35,269.52c19.68-24.77,62.11-82.06,76.21-132.37,17.61-62.89,21.14-107.31-2.65-118.74-26.43-12.7-59.02,22.62-73.56,95.19-10.24,51.12-12.33,78.09-12.33,116.79l.04-8.52c-.74,32.54,8.81,99.74,65.19,101.15,65.63,1.64,111.73-59.37,132.14-89.72"/>
  </g>
</svg>