<svg width="28" height="30" viewBox="0 0 28 30" fill="none" xmlns="http://www.w3.org/2000/svg">
<path d="M2.00012 13C0.895553 13 0.00012207 13.8954 0.00012207 15C0.00012207 16.1046 0.895553 17 2.00012 17L2.00012 13ZM27.4143 16.4142C28.1954 15.6332 28.1954 14.3668 27.4143 13.5858L14.6864 0.857864C13.9054 0.0768156 12.639 0.0768156 11.858 0.857864C11.0769 1.63891 11.0769 2.90524 11.858 3.68629L23.1717 15L11.858 26.3137C11.0769 27.0948 11.0769 28.3611 11.858 29.1421C12.639 29.9232 13.9054 29.9232 14.6864 29.1421L27.4143 16.4142ZM2.00012 17L26.0001 17V13L2.00012 13L2.00012 17Z" fill="white"/>
</svg>
