<svg width="42" height="42" viewBox="0 0 42 42" fill="none" xmlns="http://www.w3.org/2000/svg">
<path d="M20.8149 0C9.319 0 0 9.319 0 20.8149C0 32.3107 9.319 41.6297 20.8149 41.6297C32.3107 41.6297 41.6297 32.3107 41.6297 20.8149C41.6297 9.319 32.3107 0 20.8149 0ZM32.2986 22.0809L19.7987 34.5808C19.1013 35.2781 17.9705 35.2781 17.2722 34.5808C16.5749 33.8835 16.5749 32.7526 17.2722 32.0553L26.7199 22.6076C26.7199 22.6076 26.7199 22.602 26.7171 22.602H10.3715C9.50732 22.602 8.80718 21.9019 8.80718 21.0377V20.9659C8.80718 19.8966 9.6742 19.0305 10.7426 19.0305H26.7171C26.7171 19.0305 26.7217 19.0268 26.7199 19.0249L17.3067 9.61174C16.6084 8.91346 16.5674 7.76956 17.2592 7.06383C17.6097 6.70677 18.0721 6.52778 18.5345 6.52778C18.9969 6.52778 19.4491 6.70211 19.7978 7.05078L32.2977 19.5507C32.9969 20.2499 32.9969 21.3826 32.2977 22.0818L32.2986 22.0809Z" fill="#D9D9D9"/>
</svg>
