<svg width="42" height="42" viewBox="0 0 42 42" fill="none" xmlns="http://www.w3.org/2000/svg">
<path d="M20.8148 41.6299C32.3106 41.6299 41.6296 32.3109 41.6296 20.815C41.6296 9.31916 32.3106 0.000159403 20.8148 0.000158398C9.31892 0.000157393 -8.10986e-05 9.31916 -8.21036e-05 20.815C-8.31086e-05 32.3109 9.31892 41.6299 20.8148 41.6299ZM9.33104 19.549L21.831 7.04908C22.5283 6.35174 23.6591 6.35174 24.3574 7.04908C25.0548 7.74642 25.0548 8.87726 24.3574 9.57461L14.9098 19.0223C14.9098 19.0223 14.9098 19.0279 14.9126 19.0279L31.2581 19.0279C32.1223 19.0279 32.8225 19.728 32.8225 20.5922L32.8225 20.664C32.8225 21.7333 31.9554 22.5994 30.8871 22.5994L14.9126 22.5994C14.9126 22.5994 14.9079 22.6031 14.9098 22.605L24.3229 32.0181C25.0212 32.7164 25.0622 33.8603 24.3705 34.566C24.0199 34.9231 23.5575 35.1021 23.0951 35.1021C22.6327 35.1021 22.1806 34.9278 21.8319 34.5791L9.33197 22.0792C8.63277 21.38 8.63277 20.2473 9.33197 19.5481L9.33104 19.549Z" fill="#D9D9D9"/>
</svg>
