<svg width="34" height="28" viewBox="0 0 34 28" fill="none" xmlns="http://www.w3.org/2000/svg">
<path fill-rule="evenodd" clip-rule="evenodd" d="M2.3375 12.0543C11.4641 8.10241 17.5501 5.49771 20.595 4.23891C29.2889 0.64547 31.0959 0.0207391 32.273 0.000205085C32.5323 -0.00415061 33.1108 0.059318 33.4865 0.361727C33.8033 0.616846 33.8903 0.962191 33.9323 1.20424C33.9742 1.44629 34.0262 1.99822 33.9849 2.42881C33.514 7.34826 31.4753 19.2866 30.4378 24.7965C29.9989 27.1281 29.1348 27.9096 28.2983 27.9861C26.48 28.1523 25.1 26.7921 23.3387 25.6453C20.5831 23.8501 19.0265 22.7332 16.3523 20.9816C13.2611 18.9574 15.2653 17.8448 17.0266 16.0267C17.4875 15.5506 25.4982 8.31024 25.6529 7.65315C25.6723 7.57102 25.6905 7.26488 25.507 7.10309C25.3236 6.94131 25.0537 6.99669 24.859 7.04087C24.5828 7.10309 20.1811 9.99465 11.6538 15.7149C10.4046 16.5674 9.27258 16.983 8.25886 16.9613C7.14121 16.937 4.99106 16.3334 3.39254 15.817C1.43086 15.1835 -0.127593 14.8488 0.00827868 13.7735C0.079032 13.2135 0.85544 12.6404 2.3375 12.0549V12.0543Z" fill="#666666"/>
</svg>
