<svg width="44" height="44" viewBox="0 0 44 44" fill="none" xmlns="http://www.w3.org/2000/svg">
<circle cx="22" cy="22" r="22" fill="#D9D9D9"/>
<path d="M24.6367 8.97363C25.3229 8.97363 25.8984 9.21159 26.3633 9.6875C26.8392 10.1634 27.0771 10.7389 27.0771 11.4141C27.0771 12.0892 26.8392 12.6647 26.3633 13.1406C25.8874 13.6165 25.3118 13.8545 24.6367 13.8545C23.9727 13.8545 23.4027 13.6165 22.9268 13.1406C22.4508 12.6647 22.2129 12.0892 22.2129 11.4141C22.2129 10.7389 22.4453 10.1634 22.9102 9.6875C23.3861 9.21159 23.9616 8.97363 24.6367 8.97363ZM25.666 16.6104L22.2627 28.4141C22.0745 29.0892 21.9805 29.5319 21.9805 29.7422C21.9805 29.8639 22.0303 29.9801 22.1299 30.0908C22.2295 30.1904 22.3346 30.2402 22.4453 30.2402C22.6335 30.2402 22.8216 30.1572 23.0098 29.9912C23.5078 29.5817 24.1055 28.8402 24.8027 27.7666L25.3672 28.0986C23.696 31.0094 21.9196 32.4648 20.0381 32.4648C19.3187 32.4648 18.7432 32.2656 18.3115 31.8672C17.891 31.4577 17.6807 30.943 17.6807 30.3232C17.6807 29.9137 17.7747 29.3936 17.9629 28.7627L20.2705 20.8271C20.4919 20.0635 20.6025 19.488 20.6025 19.1006C20.6025 18.8571 20.4974 18.6413 20.2871 18.4531C20.0768 18.265 19.7891 18.1709 19.4238 18.1709C19.2578 18.1709 19.0586 18.1764 18.8262 18.1875L19.042 17.5234L24.6699 16.6104H25.666Z" fill="white"/>
</svg>
