<svg width="29" height="29" viewBox="0 0 29 29" fill="none" xmlns="http://www.w3.org/2000/svg">
<mask id="mask0_39_37" style="mask-type:luminance" maskUnits="userSpaceOnUse" x="0" y="0" width="29" height="29">
<path d="M28.4261 0H0V28.4261H28.4261V0Z" fill="white"/>
</mask>
<g mask="url(#mask0_39_37)">
<path fill-rule="evenodd" clip-rule="evenodd" d="M1.99836 1.99836C0 3.99671 0 7.21171 0 13.6445V14.7816C0 21.2144 0 24.4294 1.99836 26.4278C3.99671 28.4261 7.21171 28.4261 13.6445 28.4261H14.7816C21.2144 28.4261 24.4294 28.4261 26.4278 26.4278C28.4261 24.4294 28.4261 21.2144 28.4261 14.7816V13.6445C28.4261 7.21171 28.4261 3.99671 26.4278 1.99836C24.4294 0 21.2144 0 14.7816 0H13.6445C7.21171 0 3.99671 0 1.99836 1.99836ZM4.79833 8.64722C4.95183 16.038 8.64722 20.4782 15.1255 20.4782H15.4922V16.2484C17.8743 16.4843 19.6737 18.2268 20.3957 20.4782H23.7585C22.8347 17.1154 20.4071 15.2535 18.8892 14.5428C20.4043 13.6673 22.5362 11.5353 23.045 8.64438H19.9892C19.3269 10.9895 17.3598 13.1215 15.4894 13.3233V8.64722H12.4336V16.8425C10.5376 16.3678 8.14692 14.0709 8.03891 8.64722H4.79264H4.79833Z" fill="#666666"/>
</g>
</svg>
