<svg width="167" height="167" viewBox="0 0 167 167" fill="none" xmlns="http://www.w3.org/2000/svg">
<path d="M148.929 47.3389C154.771 57.9993 158.096 70.233 158.096 83.2465C158.096 110.86 143.131 134.968 120.879 147.942L143.74 81.844C148.01 71.166 149.432 62.6278 149.432 55.0357C149.432 52.2801 149.25 49.7227 148.929 47.3389ZM93.5642 48.1537C98.0703 47.9168 102.131 47.4428 102.131 47.4428C106.164 46.9653 105.688 41.0383 101.653 41.2744C101.653 41.2744 89.5294 42.2258 81.7031 42.2258C74.3489 42.2258 61.9909 41.2744 61.9909 41.2744C57.9543 41.0383 57.4813 47.2041 61.516 47.4428C61.516 47.4428 65.3341 47.9168 69.3671 48.1537L81.0274 80.105L64.6452 129.23L37.3903 48.1537C41.8999 47.9168 45.9558 47.4428 45.9558 47.4428C49.9861 46.9653 49.5104 41.0383 45.4774 41.2744C45.4774 41.2744 33.3564 42.2258 25.5291 42.2258C24.1249 42.2258 22.4696 42.1915 20.7121 42.1351C34.0955 21.8168 57.0989 8.399 83.2491 8.399C102.734 8.399 120.476 15.8492 133.792 28.0504C133.47 28.031 133.155 27.9905 132.823 27.9905C125.471 27.9905 120.254 34.395 120.254 41.2744C120.254 47.4428 123.813 52.6616 127.606 58.8291C130.452 63.8144 133.777 70.2181 133.777 79.4716C133.777 85.877 131.313 93.3114 128.082 103.668L120.614 128.612L93.5642 48.1537ZM83.2491 158.1C75.902 158.1 68.8112 157.023 62.1036 155.05L84.5635 89.7937L107.569 152.825C107.72 153.195 107.906 153.536 108.104 153.857C100.325 156.595 91.9653 158.1 83.2491 158.1ZM8.40165 83.2465C8.40165 72.3949 10.7291 62.0939 14.8828 52.7858L50.5869 150.608C25.6163 138.478 8.40165 112.873 8.40165 83.2465ZM83.2491 -0.000882898C37.3453 -0.000882898 0 37.3436 0 83.2465C0 129.151 37.3453 166.5 83.2491 166.5C129.152 166.5 166.499 129.151 166.499 83.2465C166.499 37.3436 129.152 -0.000882898 83.2491 -0.000882898Z" fill="#E6E6E6"/>
</svg>
